{
  "accessors": [
    {
      "bufferView": 2,
      "componentType": 5126,
      "count": 65532,
      "max": [
        2.6867854595184326,
        2.8411221504211426,
        1.1279823780059814
      ],
      "min": [
        -2.669783592224121,
        6.902217864990234e-05,
        -1.127982497215271
      ],
      "type": "VEC3"
    },
    {
      "bufferView": 2,
      "byteOffset": 786384,
      "componentType": 5126,
      "count": 65532,
      "max": [
        0.9999927878379822,
        0.9999987483024597,
        0.9999971389770508
      ],
      "min": [
        -0.9228361248970032,
        -0.999999463558197,
        -0.9782627820968628
      ],
      "type": "VEC3"
    },
    {
      "bufferView": 1,
      "componentType": 5126,
      "count": 65532,
      "max": [
        0.9918659925460815,
        0.9920349717140198
      ],
      "min": [
        0.007956000044941902,
        0.008076012134552002
      ],
      "type": "VEC2"
    },
    {
      "bufferView": 0,
      "componentType": 5125,
      "count": 360261,
      "type": "SCALAR"
    },
    {
      "bufferView": 2,
      "byteOffset": 1572768,
      "componentType": 5126,
      "count": 46287,
      "max": [
        1.8205523490905762,
        2.842428207397461,
        1.1262754201889038
      ],
      "min": [
        -2.6900835037231445,
        0.01055610179901123,
        -0.8315116167068481
      ],
      "type": "VEC3"
    },
    {
      "bufferView": 2,
      "byteOffset": 2128212,
      "componentType": 5126,
      "count": 46287,
      "max": [
        0.9999669790267944,
        0.9999997615814209,
        0.9999918937683105
      ],
      "min": [
        -0.5157339572906494,
        -0.9999755024909973,
        -0.8740398287773132
      ],
      "type": "VEC3"
    },
    {
      "bufferView": 1,
      "byteOffset": 524256,
      "componentType": 5126,
      "count": 46287,
      "max": [
        0.9811130166053772,
        0.9920250177383423
      ],
      "min": [
        0.007962999865412712,
        0.10849398374557495
      ],
      "type": "VEC2"
    },
    {
      "bufferView": 0,
      "byteOffset": 1441044,
      "componentType": 5125,
      "count": 258825,
      "type": "SCALAR"
    },
    {
      "bufferView": 2,
      "byteOffset": 2683656,
      "componentType": 5126,
      "count": 24740,
      "max": [
        2.6900835037231445,
        2.833070993423462,
        1.1275423765182495
      ],
      "min": [
        -2.676220417022705,
        0.0,
        -1.1206146478652954
      ],
      "type": "VEC3"
    },
    {
      "bufferView": 2,
      "byteOffset": 2980536,
      "componentType": 5126,
      "count": 24740,
      "max": [
        0.9897519946098328,
        1.0,
        0.9999791383743286
      ],
      "min": [
        -0.9993046522140503,
        -0.9999995827674866,
        -0.9782627820968628
      ],
      "type": "VEC3"
    },
    {
      "bufferView": 1,
      "byteOffset": 894552,
      "componentType": 5126,
      "count": 24740,
      "max": [
        0.9852290153503418,
        0.9920600056648254
      ],
      "min": [
        0.007939999923110008,
        0.6547949910163879
      ],
      "type": "VEC2"
    },
    {
      "bufferView": 0,
      "byteOffset": 2476344,
      "componentType": 5125,
      "count": 130911,
      "type": "SCALAR"
    }
  ],
  "asset": {
    "extras": {
      "author": "vrstorytelling (https://sketchfab.com/vrstorytelling)",
      "license": "CC-BY-4.0 (http://creativecommons.org/licenses/by/4.0/)",
      "source": "https://sketchfab.com/3d-models/the-christopher-street-way-stop-in-nyc-acb26b93e5f84389a1c2397a3513380f",
      "title": "The Christopher Street way stop in NYC"
    },
    "generator": "Sketchfab-13.76.0",
    "version": "2.0"
  },
  "bufferViews": [
    {
      "buffer": 0,
      "byteLength": 2999988,
      "name": "floatBufferViews",
      "target": 34963
    },
    {
      "buffer": 0,
      "byteLength": 1092472,
      "byteOffset": 2999988,
      "byteStride": 8,
      "name": "floatBufferViews",
      "target": 34962
    },
    {
      "buffer": 0,
      "byteLength": 3277416,
      "byteOffset": 4092460,
      "byteStride": 12,
      "name": "floatBufferViews",
      "target": 34962
    }
  ],
  "buffers": [
    {
      "byteLength": 7369876,
      "uri": "scene.bin"
    }
  ],
  "images": [
    {
      "uri": "textures/material0000_baseColor.jpeg"
    },
    {
      "uri": "textures/material0001_baseColor.jpeg"
    }
  ],
  "materials": [
    {
      "name": "material0000",
      "pbrMetallicRoughness": {
        "baseColorTexture": {
          "index": 0
        },
        "metallicFactor": 0.0
      }
    },
    {
      "name": "material0001",
      "pbrMetallicRoughness": {
        "baseColorTexture": {
          "index": 1
        },
        "metallicFactor": 0.0
      }
    }
  ],
  "meshes": [
    {
      "name": "scan_0",
      "primitives": [
        {
          "attributes": {
            "NORMAL": 1,
            "POSITION": 0,
            "TEXCOORD_0": 2
          },
          "indices": 3,
          "material": 0,
          "mode": 4
        }
      ]
    },
    {
      "name": "scan_0",
      "primitives": [
        {
          "attributes": {
            "NORMAL": 5,
            "POSITION": 4,
            "TEXCOORD_0": 6
          },
          "indices": 7,
          "material": 0,
          "mode": 4
        }
      ]
    },
    {
      "name": "scan_1",
      "primitives": [
        {
          "attributes": {
            "NORMAL": 9,
            "POSITION": 8,
            "TEXCOORD_0": 10
          },
          "indices": 11,
          "material": 1,
          "mode": 4
        }
      ]
    }
  ],
  "nodes": [
    {
      "children": [
        1
      ],
      "matrix": [
        1.0,
        0.0,
        0.0,
        0.0,
        0.0,
        2.220446049250313e-16,
        -1.0,
        0.0,
        0.0,
        1.0,
        2.220446049250313e-16,
        0.0,
        0.0,
        0.0,
        0.0,
        1.0
      ],
      "name": "Sketchfab_model"
    },
    {
      "children": [
        2
      ],
      "matrix": [
        1.0,
        0.0,
        0.0,
        0.0,
        0.0,
        2.220446049250313e-16,
        1.0,
        0.0,
        0.0,
        -1.0,
        2.220446049250313e-16,
        0.0,
        0.0,
        0.0,
        0.0,
        1.0
      ],
      "name": "USDRoot"
    },
    {
      "children": [
        3
      ],
      "name": "MySsZshgyuVP2Q07M1un"
    },
    {
      "children": [
        4,
        5,
        6
      ],
      "name": "Geom"
    },
    {
      "mesh": 0,
      "name": "scan_0"
    },
    {
      "mesh": 1,
      "name": "scan_0"
    },
    {
      "mesh": 2,
      "name": "scan_1"
    }
  ],
  "samplers": [
    {
      "magFilter": 9729,
      "minFilter": 9987,
      "wrapS": 10497,
      "wrapT": 10497
    }
  ],
  "scene": 0,
  "scenes": [
    {
      "name": "Sketchfab_Scene",
      "nodes": [
        0
      ]
    }
  ],
  "textures": [
    {
      "sampler": 0,
      "source": 0
    },
    {
      "sampler": 0,
      "source": 1
    }
  ]
}
